<svg width="31" height="38" viewBox="0 0 31 38" fill="none" xmlns="http://www.w3.org/2000/svg">
  <path 
    d="M21.0767 33.9842L29.7484 37.4703V36.9314M21.0767 33.9842L30.2484 37.1324L29.7484 36.9314M21.0767 33.9842H9.92322H21.0767ZM29.7484 36.9314V26.7483V26.7473C29.7495 26.2161 29.6245 25.7127 29.3695 25.2306C29.1167 24.7527 28.7677 24.3714 28.3176 24.0801L28.3118 24.0764L28.3119 24.0763L24.4404 21.4954L24.2177 21.3469L24.2177 21.0792C24.219 16.6196 23.4533 12.7291 21.9361 9.39553C20.4701 6.17462 18.3265 3.50338 15.5 1.37614C12.6747 3.50336 10.5317 6.17459 9.06569 9.39553C7.54846 12.7291 6.7822 16.6197 6.7822 21.0793V21.3469L6.55955 21.4954L2.68809 24.0763L2.68284 24.0798L2.68282 24.0798C2.2338 24.371 1.88524 24.7524 1.6323 25.2306C1.37716 25.713 1.25154 26.2167 1.25154 26.7483V36.9314L9.73672 33.5203L9.82648 33.4842H9.92322H21.0767H21.1735L21.2632 33.5203L29.7484 36.9314ZM3.93865 32.2328V32.9748L4.62636 32.6962L8.26738 31.2214L8.70696 31.0434L8.55235 30.595C8.24822 29.713 7.96712 28.8156 7.70909 27.9027C7.45336 26.998 7.24969 26.094 7.09791 25.1906L6.9686 24.4208L6.32343 24.8601L4.15725 26.335L3.93865 26.4838V26.7483V32.2328ZM11.357 30.5024L11.4897 30.7971H11.8129H19.1871H19.5104L19.643 30.5023C20.2164 29.2281 20.6717 27.6909 21.0147 25.8983C21.3588 24.1004 21.5306 22.2635 21.5306 20.388C21.5306 17.2894 21.014 14.3497 19.9782 11.5725C18.9442 8.80016 17.5682 6.62597 15.8323 5.08165L15.5001 4.78611L15.1678 5.08151C13.4317 6.62468 12.0557 8.799 11.0217 11.5726C9.98597 14.351 9.46931 17.2906 9.46931 20.388C9.46931 22.2623 9.64114 24.0992 9.98518 25.8983C10.3282 27.6921 10.7835 29.2294 11.357 30.5024ZM15.5024 20.5793H15.5C14.6196 20.5793 13.8788 20.2719 13.2504 19.6436C12.6221 19.0153 12.3139 18.2737 12.3129 17.3916C12.3118 16.5106 12.6195 15.7704 13.2495 15.1436C13.881 14.5153 14.6228 14.2072 15.5012 14.2051C16.3776 14.203 17.1188 14.5101 17.7514 15.1427C18.3839 15.7752 18.6903 16.5156 18.6871 17.3904C18.6839 18.2681 18.3761 19.0114 17.7493 19.6457C17.1258 20.2767 16.3864 20.5836 15.5024 20.5793ZM26.3736 32.6962L27.0613 32.9748V32.2328V26.7483V26.4838L26.8427 26.335L24.6765 24.8601L24.0304 24.4202L23.9019 25.1912C23.7514 26.0944 23.5484 26.9982 23.2927 27.9027C23.0347 28.8154 22.7531 29.7126 22.4478 30.5944L22.2924 31.0431L22.7326 31.2214L26.3736 32.6962Z"
    fill="none" 
    stroke-width="1"
  />
  <defs>
<linearGradient id="paint0_linear_103_7153" x1="20.8679" y1="1.1698" x2="20.8679" y2="39.0943" gradientUnits="userSpaceOnUse">
<stop stop-color="#4E43FA"/>
<stop offset="1" stop-color="#348AEC"/>
</linearGradient>
</defs>
  <!-- Add a middle dot -->
  <circle cx="15.5" cy="19" r="0.5" fill="#000" />
</svg>
